ModelForces
version=1
nRows=4
nColumns=155
inDegrees=no

This file contains the forces exerted on a model during a simulation.

A force is a generalized force, meaning that it can be either a force (N) or a torque (Nm).

Units are S.I. units (second, meters, Newtons, ...)
Angles are in degrees.

endheader
time	glut_med1_r	glut_med2_r	glut_med3_r	glut_min1_r	glut_min2_r	glut_min3_r	semimem_r	semiten_r	bifemlh_r	bifemsh_r	sar_r	add_long_r	add_brev_r	add_mag1_r	add_mag2_r	add_mag3_r	tfl_r	pect_r	grac_r	glut_max1_r	glut_max2_r	glut_max3_r	iliacus_r	psoas_r	quad_fem_r	gem_r	peri_r	rect_fem_r	vas_med_r	vas_int_r	vas_lat_r	med_gas_r	lat_gas_r	soleus_r	tib_post_r	flex_dig_r	flex_hal_r	tib_ant_r	per_brev_r	per_long_r	per_tert_r	ext_dig_r	ext_hal_r	glut_med1_l	glut_med2_l	glut_med3_l	glut_min1_l	glut_min2_l	glut_min3_l	semimem_l	semiten_l	bifemlh_l	bifemsh_l	sar_l	add_long_l	add_brev_l	add_mag1_l	add_mag2_l	add_mag3_l	tfl_l	pect_l	grac_l	glut_max1_l	glut_max2_l	glut_max3_l	iliacus_l	psoas_l	quad_fem_l	gem_l	peri_l	rect_fem_l	vas_med_l	vas_int_l	vas_lat_l	med_gas_l	lat_gas_l	soleus_l	tib_post_l	flex_dig_l	flex_hal_l	tib_ant_l	per_brev_l	per_long_l	per_tert_l	ext_dig_l	ext_hal_l	ercspn_r	ercspn_l	intobl_r	intobl_l	extobl_r	extobl_l	femur_lat_meniscii_r.femur_lat_r.force.X	femur_lat_meniscii_r.femur_lat_r.force.Y	femur_lat_meniscii_r.femur_lat_r.force.Z	femur_lat_meniscii_r.femur_lat_r.torque.X	femur_lat_meniscii_r.femur_lat_r.torque.Y	femur_lat_meniscii_r.femur_lat_r.torque.Z	femur_lat_meniscii_r.meniscus_lat_r.force.X	femur_lat_meniscii_r.meniscus_lat_r.force.Y	femur_lat_meniscii_r.meniscus_lat_r.force.Z	femur_lat_meniscii_r.meniscus_lat_r.torque.X	femur_lat_meniscii_r.meniscus_lat_r.torque.Y	femur_lat_meniscii_r.meniscus_lat_r.torque.Z	femur_med_meniscii_r.femur_med_r.force.X	femur_med_meniscii_r.femur_med_r.force.Y	femur_med_meniscii_r.femur_med_r.force.Z	femur_med_meniscii_r.femur_med_r.torque.X	femur_med_meniscii_r.femur_med_r.torque.Y	femur_med_meniscii_r.femur_med_r.torque.Z	femur_med_meniscii_r.meniscus_med_r.force.X	femur_med_meniscii_r.meniscus_med_r.force.Y	femur_med_meniscii_r.meniscus_med_r.force.Z	femur_med_meniscii_r.meniscus_med_r.torque.X	femur_med_meniscii_r.meniscus_med_r.torque.Y	femur_med_meniscii_r.meniscus_med_r.torque.Z	femur_med_tibia_r.tibia_upper_r.force.X	femur_med_tibia_r.tibia_upper_r.force.Y	femur_med_tibia_r.tibia_upper_r.force.Z	femur_med_tibia_r.tibia_upper_r.torque.X	femur_med_tibia_r.tibia_upper_r.torque.Y	femur_med_tibia_r.tibia_upper_r.torque.Z	femur_med_tibia_r.femur_med_r.force.X	femur_med_tibia_r.femur_med_r.force.Y	femur_med_tibia_r.femur_med_r.force.Z	femur_med_tibia_r.femur_med_r.torque.X	femur_med_tibia_r.femur_med_r.torque.Y	femur_med_tibia_r.femur_med_r.torque.Z	femur_lat_tibia_r.tibia_upper_r.force.X	femur_lat_tibia_r.tibia_upper_r.force.Y	femur_lat_tibia_r.tibia_upper_r.force.Z	femur_lat_tibia_r.tibia_upper_r.torque.X	femur_lat_tibia_r.tibia_upper_r.torque.Y	femur_lat_tibia_r.tibia_upper_r.torque.Z	femur_lat_tibia_r.femur_lat_r.force.X	femur_lat_tibia_r.femur_lat_r.force.Y	femur_lat_tibia_r.femur_lat_r.force.Z	femur_lat_tibia_r.femur_lat_r.torque.X	femur_lat_tibia_r.femur_lat_r.torque.Y	femur_lat_tibia_r.femur_lat_r.torque.Z	aACL_R	pACL_R	aPCL_R	pPCL_R	aMCL_R	mMCL_R	pMCL_R	aLCL_R	mLCL_R	pLCL_R	aPCL_L	pPCL_L	aMCL_L	aLCL_L
      0.10791397	      8.42971183	     11.35575674	     12.24612165	      5.18134187	      5.93820594	      6.58935632	    112.78504040	    165.71981762	    239.66992356	    373.39720878	    124.95073524	     11.34205265	      8.02002514	      0.00000000	      4.85537209	      8.52935347	      5.02550429	      1.77141600	     98.88957364	      7.34125814	     11.18099620	      8.43831186	     33.14085015	     24.90600672	      7.06372246	      4.57883231	      4.07369361	     38.74289052	      0.00000000	      0.00000000	      0.00000000	     23.75402625	      0.32719976	      0.00000000	      0.23075985	      2.69469891	      0.19035688	     30.32326615	      2.24993365	      3.29746842	      9.55159810	     17.23355482	      5.42414759	      8.42971183	     11.35575674	     12.24612165	      5.18134187	      5.93820594	      6.58935632	      0.00000000	      8.56194465	     14.91711030	     14.27588059	      2.95232643	     11.34205265	      8.02002514	      0.00000000	      4.85537209	      8.52935347	      6.87509677	      1.77141600	      3.06322046	      7.34125814	     11.18099620	      8.43831186	     33.14085015	     24.90600672	      7.06372246	      4.57883231	      4.07369361	     23.53713354	      0.00000000	      0.00000000	      0.00000000	     16.17465078	      8.39701516	     58.07086178	     57.77708296	      7.91681858	      7.31192630	     16.83574132	      9.48327920	     21.81670709	      3.84429470	     11.55769304	      3.90992188	     48.80173168	     48.80173168	     18.53649920	     18.53649920	     35.46555360	     35.46555360	     22.23315708	    203.26467563	     30.20175944	    -17.31509569	      0.60358780	      8.44862279	    -22.23315708	   -203.26467563	    -30.20175944	      6.19909424	     -0.96564273	      2.17118183	    -21.43545669	     36.27702921	      2.15371801	     -0.01940369	      0.50617558	     -8.79842977	     21.43545669	    -36.27702921	     -2.15371801	     -0.72670499	     -0.48275986	      0.97817035	    -64.98667058	   -492.78762411	    120.59553422	    -11.90332140	      1.98367622	      1.68933532	     64.98667058	    492.78762411	   -120.59553422	     59.07921557	     -0.86684204	     28.29657072	    -53.89076866	   -247.08343885	    -61.04442507	      8.36720909	     -2.02473254	      0.81195532	     53.89076866	    247.08343885	     61.04442507	    -31.18533042	      1.27379279	     22.37166664	     15.07980769	    -11.75790331	      0.00000000	     60.30479166	      0.00000000	      0.00000000	    -35.38820251	      0.00000000	      0.00000000	      0.00000000	      0.00000000	      0.00000000	      0.00000001	      0.00000000
      0.10841140	      8.84743494	     11.31802332	     12.20563878	      5.16468609	      5.91984137	      6.57151497	    112.38726867	    165.36756919	    238.22236138	    371.61148272	    124.92011884	     11.30381529	      7.99447535	      0.00000000	      4.84600750	      8.50007108	      5.02367568	      2.51369822	     98.77715296	      7.31694347	     11.14343796	      8.40960635	     33.06998511	     24.82532405	      7.05111481	      4.56722500	      4.16574382	     38.65734628	      0.00000000	      0.00000000	      0.00000000	     24.69576952	      0.30884568	      0.00000000	      0.00000000	      2.49587364	      0.08354360	     30.21440839	      2.38143142	      3.34658095	      9.03449841	     17.19418025	      5.40978400	      8.84743494	     11.31802332	     12.20563878	      5.16468609	      5.91984137	      6.57151497	      0.00000000	      8.53200120	     14.91213963	     14.22899193	      2.94287861	     11.30381529	      7.99447535	      0.00000000	      4.84600750	      8.50007108	      6.85785328	      2.51369822	      3.05325502	      7.31694347	     11.14343796	      8.40960635	     33.06998511	     24.82532405	      7.05111481	      4.56722500	      4.16574382	     23.46502774	      0.00000000	      0.00000000	      0.00000000	     16.35322780	      8.46294266	     58.09373685	     57.72315684	      7.86529363	      7.25690199	     16.82050410	      9.46234465	     21.79456097	      3.83199209	     11.61006085	      3.92624592	     48.64452918	     48.64452918	     18.47277058	     18.47277058	     35.40682385	     35.40682385	     26.46867035	    206.37781174	     29.12169376	    -16.93187417	      0.71048199	     10.20844281	    -26.46867035	   -206.37781174	    -29.12169376	      6.23165720	     -1.07173744	      2.07709345	    -20.76665993	     36.50200628	      2.31319739	     -0.08010420	      0.49253809	     -8.51567935	     20.76665993	    -36.50200628	     -2.31319739	     -0.72722254	     -0.47277022	      0.95599293	    -70.37349110	   -502.58186027	    122.82739215	    -12.14230137	      2.08913723	      1.59787939	     70.37349110	    502.58186027	   -122.82739215	     60.18256336	     -0.95116922	     30.58291479	    -55.47827893	   -245.36438243	    -60.13352290	      8.28261509	     -2.05874698	      0.76102788	     55.47827893	    245.36438243	     60.13352290	    -30.76065694	      1.31104485	     23.02774217	     15.33937603	    -11.46821594	      0.00000000	     56.08542299	      0.00000000	      0.00000000	    -36.88008758	      0.00000000	      0.00000000	      0.00000000	      0.00000000	      0.00000000	      0.00000001	      0.00000000
      0.10909635	      9.36323631	     11.26646852	     12.15026482	      5.14193649	      5.89475997	      6.54681596	    111.91378558	    165.01456976	    236.27207010	    369.46249965	    124.95773358	     11.25159319	      7.95957677	      0.00000000	      4.83259987	      8.46001225	      5.01965893	      3.14113229	     98.69673591	      7.28369774	     11.09213735	      8.37040115	     32.97321808	     24.71514526	      7.03225067	      4.55136625	      4.28703990	     38.55132258	      0.00000000	      0.00000000	      0.00000000	     26.05836796	      0.28964786	      0.00000000	      0.00000000	      2.22496554	      0.00000000	     30.06275093	      2.57513275	      3.42878412	      9.58858573	     17.16832818	      5.38923551	      9.36323631	     11.26646852	     12.15026482	      5.14193649	      5.89475997	      6.54681596	      0.00000000	      8.49110617	     14.90416841	     14.16495207	      2.92997395	     11.25159319	      7.95957677	      0.00000000	      4.83259987	      8.46001225	      6.83423717	      3.14113229	      3.03964398	      7.28369774	     11.09213735	      8.37040115	     32.97321808	     24.71514526	      7.03225067	      4.55136625	      4.28703990	     23.36591718	      0.00000000	      0.00000000	      0.00000000	     16.59110618	      8.55072101	     58.11820439	     57.64812936	      7.79548713	      7.18236058	     16.79816926	      9.43326426	     21.76344093	      3.81518389	     11.67762432	      3.94624812	     48.42981246	     48.42981246	     18.38573272	     18.38573272	     35.32663316	     35.32663316	     28.70157936	    205.37189453	     29.49638614	    -17.06852343	      0.76343884	     11.13486978	    -28.70157936	   -205.37189453	    -29.49638614	      6.21761730	     -1.13542858	      2.01366916	    -19.64327596	     36.24652998	      2.65045718	     -0.22489440	      0.46603213	     -8.04781964	     19.64327596	    -36.24652998	     -2.65045718	     -0.71289008	     -0.45293922	      0.91858475	    -76.64433608	   -515.43925663	    125.16803297	    -12.42871666	      2.21770441	      1.52264841	     76.64433608	    515.43925663	   -125.16803297	     61.37790443	     -1.05456543	     33.24026496	    -57.06098383	   -242.51936429	    -59.87887443	      8.19524341	     -2.10375108	      0.71155935	     57.06098383	    242.51936429	     59.87887443	    -30.58809365	      1.35111785	     23.67577611	     15.89583809	    -10.88341758	      0.00000000	     54.01634259	      0.00000000	      0.00000000	    -36.76598564	      0.00000000	      0.00000000	      0.00000000	      0.00000000	      0.00000000	      0.00000001	      0.00000000
      0.10993487	      9.91376851	     11.20398714	     12.08306477	      5.11437499	      5.86437683	      6.51640049	    111.48706076	    164.82886153	    234.03045324	    367.65529029	    125.15224493	     11.18833323	      7.91729510	      0.00000000	      4.81545208	      8.41138651	      5.01782475	      3.58554460	     98.74064076	      7.24337057	     11.02998526	      8.32290794	     32.85602257	     24.58169786	      7.00713381	      4.53214654	      4.42742442	     38.42471251	      0.00000000	      0.00000000	      0.00000000	     27.87411083	      0.28677472	      0.00000000	      0.00000000	      1.89980805	      0.00000000	     29.87919223	      2.83185333	      3.55114961	      6.70597088	     17.26821383	      5.36366535	      9.91376851	     11.20398714	     12.08306477	      5.11437499	      5.86437683	      6.51640049	      0.00000000	      8.44156704	     14.89266179	     14.08737275	      2.91433948	     11.18833323	      7.91729510	      0.00000000	      4.81545208	      8.41138651	      6.80552963	      3.58554460	      3.02315466	      7.24337057	     11.02998526	      8.32290794	     32.85602257	     24.58169786	      7.00713381	      4.53214654	      4.42742442	     23.24489916	      0.00000000	      0.00000000	      0.00000000	     16.87013236	      8.65359738	     58.13745766	     57.55510179	      7.71187395	      7.09311142	     16.76875521	      9.39728564	     21.72437399	      3.79481420	     11.75281970	      3.96676165	     48.16968135	     48.16968135	     18.28029611	     18.28029611	     35.22952187	     35.22952187	     27.83954754	    200.83803253	     29.96409113	    -17.15560037	      0.73410636	     10.76508083	    -27.83954754	   -200.83803253	    -29.96409113	      6.11005505	     -1.11205302	      2.03053665	    -18.63467337	     35.76429765	      3.00586175	     -0.38345524	      0.43713060	     -7.63239300	     18.63467337	    -35.76429765	     -3.00586175	     -0.69237363	     -0.43085072	      0.88813243	    -83.51840768	   -522.06706720	    126.81294907	    -12.60067318	      2.35645156	      1.39917424	     83.51840768	    522.06706720	   -126.81294907	     62.17706209	     -1.17218043	     36.12704094	    -56.78876637	   -237.40121984	    -59.25882625	      8.03621372	     -2.10325893	      0.72281758	     56.78876637	    237.40121984	     59.25882625	    -30.21012390	      1.35223707	     23.53555204	     16.37052012	    -10.34822336	      0.00000000	     54.48518221	      0.00000000	      0.00000000	    -35.49350675	      0.00000000	      0.00000000	      0.00000000	      0.00000000	      0.00000000	      0.00000001	      0.00000000
